HIERARCHY
ROOT hip
{
	OFFSET 0.000000 0.000000 0.000000 
	CHANNELS 6 Xposition Yposition Zposition Xrotation Zrotation Yrotation
	JOINT abdomen
	{
		OFFSET 0.000000 3.402643 0.000000 
		CHANNELS 3 Xrotation Zrotation Yrotation
		JOINT chest
		{
			OFFSET 0.000000 8.438565 -0.680529 
			CHANNELS 3 Xrotation Zrotation Yrotation
			JOINT neck
			{
				OFFSET 0.000000 10.207942 -0.272212 
				CHANNELS 3 Xrotation Zrotation Yrotation
				JOINT head
				{
					OFFSET 0.000000 3.130431 0.000000 
					CHANNELS 3 Xrotation Zrotation Yrotation
					End Site
					{
						OFFSET 0.000000 3.130435 0.000000 
					}
				}
			}
			JOINT lCollar
			{
				OFFSET 3.470700 6.669187 -0.816635 
				CHANNELS 3 Yrotation Zrotation Xrotation
				JOINT lShldr
				{
					OFFSET 3.198488 0.000000 0.000000 
					CHANNELS 3 Zrotation Yrotation Xrotation
					JOINT lForeArm
					{
						OFFSET 10.139888 0.000000 0.000000 
						CHANNELS 3 Yrotation Zrotation Xrotation
						JOINT lHand
						{
							OFFSET 8.370511 0.000000 0.000000 
							CHANNELS 3 Zrotation Yrotation Xrotation
							End Site
							{
								OFFSET 4.083176 0.000000 0.000000 
							}
						}
					}
				}
			}
			JOINT rCollar
			{
				OFFSET -3.470700 6.669187 -0.816635 
				CHANNELS 3 Yrotation Zrotation Xrotation
				JOINT rShldr
				{
					OFFSET -3.198488 0.000000 0.000000 
					CHANNELS 3 Zrotation Yrotation Xrotation
					JOINT rForeArm
					{
						OFFSET -10.139888 0.000000 0.000000 
						CHANNELS 3 Yrotation Zrotation Xrotation
						JOINT rHand
						{
							OFFSET -8.370511 0.000000 0.000000 
							CHANNELS 3 Zrotation Yrotation Xrotation
							End Site
							{
								OFFSET -4.083176 0.000000 0.000000 
							}
						}
					}
				}
			}
		}
	}
	JOINT lThigh
	{
		OFFSET 5.308129 -1.633274 1.361059 
		CHANNELS 3 Xrotation Zrotation Yrotation
		JOINT lShin
		{
			OFFSET -2.041588 -20.007561 0.000000 
			CHANNELS 3 Xrotation Zrotation Yrotation
			JOINT lFoot
			{
				OFFSET 0.000000 -19.190928 -1.224953 
				CHANNELS 3 Xrotation Yrotation Zrotation
				End Site
				{
					OFFSET 0.000000 -2.449906 4.627600 
				}
			}
		}
	}
	JOINT rThigh
	{
		OFFSET -5.308129 -1.633274 1.361059 
		CHANNELS 3 Xrotation Zrotation Yrotation
		JOINT rShin
		{
			OFFSET 2.041588 -20.007561 0.000000 
			CHANNELS 3 Xrotation Zrotation Yrotation
			JOINT rFoot
			{
				OFFSET 0.000000 -19.190928 -1.224953 
				CHANNELS 3 Xrotation Yrotation Zrotation
				End Site
				{
					OFFSET 0.000000 -2.449906 4.627600 
				}
			}
		}
	}
}
MOTION
Frames: 13
Frame Time: 0.016667
-0.818253 43.900093 -1.328681 -6.254830 -5.048050 -5.434200 -17.144600 -6.548550 -1.248090 19.489300 -4.227780 -1.474250 23.771099 4.903370 -10.900500 15.938600 7.774880 -6.485120 2.000000 -2.000000 0.000000 -105.500999 -38.294998 -103.872002 103.848000 -0.179788 0.152031 -179.921005 -179.901001 4.758000 -2.000000 2.000000 0.000000 -2.968190 45.373299 148.981995 -72.129402 0.256803 0.130128 -0.064483 0.055978 -157.341995 23.582653 2.021166 -2.948187 -25.100672 8.752166 -2.042620 6.257958 20.739346 -2.282212 9.728074 4.728495 -0.338298 3.731898 -4.295655 -0.145602 -14.180316 -8.071308 -1.894297 
-0.804341 43.885300 -1.317414 -6.401970 -5.056330 -5.713200 -17.075399 -6.594160 -1.343170 19.567699 -4.169300 -1.539610 23.905300 4.783170 -10.823000 15.986100 7.716060 -6.443030 2.000000 -2.000000 0.000000 -105.553001 -38.657001 -104.906998 103.642998 -0.180297 0.152155 -179.908997 -179.888000 3.615450 -2.000000 2.000000 0.000000 -4.208760 45.265900 148.972000 -73.594299 0.253463 0.131158 -0.063651 0.053691 -156.472000 23.796810 1.875141 -2.732392 -25.063593 8.737664 -2.027408 6.228740 20.754038 -2.262078 9.833059 4.699440 -0.055891 3.844847 -4.366123 -0.156000 -14.224457 -8.155254 -1.865030 
-0.801150 43.871265 -1.295924 -6.530200 -5.132680 -5.966610 -17.085899 -6.658640 -1.404000 19.469700 -4.208230 -1.570840 23.862000 4.899840 -10.665200 15.938900 7.784440 -6.375700 2.000000 -2.000000 0.000000 -104.573997 -39.349800 -104.028000 104.708000 -0.177659 0.151488 -179.914001 -179.893005 1.154500 -2.000000 2.000000 0.000000 -5.430780 44.708900 149.130005 -75.703697 0.248610 0.132490 -0.062456 0.050198 -155.154007 24.094160 1.813400 -2.478869 -25.235397 8.784579 -2.056420 6.222417 20.797777 -2.259139 10.433867 4.673309 0.235231 2.836999 -4.299259 -0.096982 -13.798856 -8.452423 -1.910735 
-0.797962 43.857235 -1.274422 -6.648680 -5.209070 -6.230330 -17.096300 -6.726540 -1.473960 19.371700 -4.256910 -1.601730 23.809799 5.016730 -10.518900 15.881800 7.853130 -6.311120 2.000000 -2.000000 0.000000 -103.605003 -40.052399 -103.167999 105.772003 -0.175033 0.150773 -179.910004 -179.878006 -1.306430 -2.000000 2.000000 0.000000 -6.633210 44.151901 149.304993 -77.803299 0.243733 0.133638 -0.061333 0.046653 -153.826004 24.371765 1.751244 -2.224796 -25.370312 8.816446 -2.068633 6.161791 20.818001 -2.218469 10.980880 4.690814 0.497229 1.967836 -4.320168 -0.009389 -13.415874 -8.762604 -1.918903 
-0.796424 43.853889 -1.239923 -6.639180 -5.238270 -6.384100 -16.995501 -6.647860 -1.487760 19.636299 -4.120560 -1.613720 23.889099 4.812930 -10.449600 15.909300 7.785330 -6.252710 2.000000 -2.000000 0.000000 -103.121002 -40.842400 -101.123001 106.563004 -0.173091 0.150209 -179.904007 -179.882004 0.627178 -2.000000 2.000000 0.000000 -7.718840 43.742401 149.001007 -79.385300 0.240033 0.134385 -0.060330 0.043214 -152.546997 24.490345 1.738773 -2.225680 -25.467127 8.805989 -2.070194 6.130576 20.981123 -2.190855 11.005767 4.723037 0.652362 1.967525 -4.384604 -0.009359 -13.444202 -8.821279 -1.908460 
-0.794889 43.850418 -1.205424 -6.639490 -5.267370 -6.536980 -16.884600 -6.563450 -1.515310 19.900801 -3.974350 -1.634340 23.958599 4.619560 -10.368700 15.936500 7.708000 -6.207440 2.000000 -2.000000 0.000000 -102.675003 -41.652100 -99.059196 107.363998 -0.171133 0.149612 -179.917007 -179.895996 2.570510 -2.000000 2.000000 0.000000 -8.794630 43.342602 148.707993 -80.967300 0.236314 0.135029 -0.059403 0.039753 -151.266998 24.586794 1.735299 -2.252453 -25.529617 8.805231 -2.073510 6.077608 21.136988 -2.152006 11.047961 4.741665 0.798487 1.912943 -4.418981 0.000793 -13.420934 -8.856658 -1.870815 
-0.778709 43.844879 -1.145975 -6.601730 -5.403600 -6.690040 -16.972300 -6.522630 -1.488140 19.881201 -3.993860 -1.622990 24.415501 4.383900 -10.208100 16.091499 7.617270 -6.146100 2.000000 -2.000000 0.000000 -102.531998 -41.944302 -96.783798 108.233002 -0.169017 0.148932 -179.916000 -179.895004 2.023640 -2.000000 2.000000 0.000000 -9.283000 43.274200 148.755997 -82.256401 0.233271 0.135478 -0.058215 0.034780 -149.440994 24.752155 1.838547 -2.292937 -25.697765 8.799213 -2.088501 6.048460 21.363110 -2.123515 10.825721 4.893423 0.973683 2.420339 -4.555025 -0.029266 -13.658200 -8.779613 -1.796229 
-0.762527 43.839230 -1.086536 -6.554080 -5.530250 -6.846230 -17.069401 -6.475650 -1.472130 19.861601 -4.013380 -1.601860 24.872900 4.139840 -10.065700 16.236799 7.536440 -6.084480 2.000000 -2.000000 0.000000 -102.406998 -42.246498 -94.505096 109.112000 -0.166888 0.148213 -179.914993 -179.893005 1.467000 -2.000000 2.000000 0.000000 -9.771380 43.205700 148.804993 -83.555199 0.230195 0.135861 -0.057186 0.029770 -147.615005 24.857140 1.954174 -2.335877 -25.744209 8.753232 -2.099001 5.948098 21.610472 -2.055163 10.795469 4.873947 1.144250 2.499816 -4.321548 -0.038204 -13.682351 -8.670587 -1.905974 
-0.756794 43.829700 -1.051588 -6.614260 -5.646010 -7.022470 -17.095699 -6.378050 -1.488800 19.930201 -3.896250 -1.607920 25.198299 3.966180 -9.945340 16.353500 7.485150 -6.040380 2.000000 -2.000000 0.000000 -102.473999 -41.982800 -94.085297 109.053001 -0.167030 0.148262 -179.912994 -179.891998 0.705282 -2.000000 2.000000 0.000000 -10.239300 43.596500 148.697998 -83.994698 0.229153 0.135975 -0.056624 0.026621 -146.473007 25.094109 2.001116 -2.396347 -25.877569 8.820155 -2.100637 5.838425 21.850382 -2.014334 11.053133 4.979615 1.348140 2.169290 -4.387038 -0.019439 -13.554471 -8.830741 -1.868064 
-0.751059 43.820175 -1.016651 -6.664570 -5.752150 -7.200580 -17.112301 -6.277310 -1.497290 19.998800 -3.779120 -1.603940 25.524500 3.792550 -9.837300 16.470200 7.433870 -5.996490 2.000000 -2.000000 0.000000 -102.551003 -41.728802 -93.655602 108.995003 -0.167171 0.148311 -179.912003 -179.880997 -0.056435 -2.000000 2.000000 0.000000 -10.707200 43.987400 148.591995 -84.434097 0.228109 0.136081 -0.056124 0.023461 -145.330002 25.299908 2.065137 -2.459694 -25.966215 8.833526 -2.097759 5.705042 22.052475 -1.944951 11.242090 5.123410 1.531745 1.928549 -4.560665 0.010436 -13.425076 -8.990510 -1.776565 
-0.750224 43.803059 -0.986837 -6.812370 -5.798900 -7.697720 -17.168301 -6.109840 -1.410450 19.969601 -3.534970 -1.545900 25.786699 3.593640 -9.820710 16.565399 7.326010 -5.987460 2.000000 -2.000000 0.000000 -102.223000 -40.811100 -95.061996 108.750000 -0.167762 0.148513 -179.908997 -179.876999 -1.687290 -2.000000 2.000000 0.000000 -11.486800 44.681099 148.417007 -84.668503 0.227553 0.136134 -0.055819 0.021294 -144.548996 25.615381 1.898639 -2.357506 -25.957335 8.925783 -2.122058 5.430973 22.394718 -1.840381 12.112701 4.976388 2.043535 0.409044 -4.432873 0.099626 -12.723972 -9.471248 -1.852284 
-0.749386 43.785809 -0.957010 -6.960320 -5.855270 -8.193440 -17.214800 -5.952020 -1.322830 19.940399 -3.300590 -1.478250 26.039301 3.396020 -9.807210 16.650999 7.228030 -5.977910 2.000000 -2.000000 0.000000 -101.924004 -39.883701 -96.442497 108.505997 -0.168353 0.148712 -179.906006 -179.873993 -3.308380 -2.000000 2.000000 0.000000 -12.285900 45.374802 148.223999 -84.893097 0.227019 0.136183 -0.055540 0.019097 -143.757996 25.968039 1.718951 -2.282668 -26.033241 9.072687 -2.131792 5.191895 22.692089 -1.743304 12.913934 4.887835 2.546091 -0.974498 -4.443869 0.217773 -12.067403 -9.983993 -1.812471 
-0.747330 43.773716 -0.936217 -7.058110 -5.824970 -8.675340 -17.084700 -5.752680 -1.181560 20.263300 -3.017540 -1.410360 26.050200 3.313550 -9.893070 16.667801 7.132160 -5.997880 2.000000 -2.000000 0.000000 -100.913002 -39.522701 -97.770798 108.829002 -0.167573 0.148448 -179.901993 -179.880005 -5.105280 -2.000000 2.000000 0.000000 -13.262400 45.668598 147.813995 -85.215401 0.226253 0.136249 -0.055670 0.020155 -144.139008 26.133081 1.453949 -2.152709 -25.883909 9.176788 -2.132156 4.948094 22.930218 -1.666052 13.430755 4.727253 3.001762 -1.869659 -4.426343 0.276843 -11.600424 -10.311946 -1.801139 
